<?xml version="1.0" encoding="UTF-8" standalone="no"?>
<svg
   id="light"
   viewBox="0 0 1024 1024"
   version="1.1"
   sodipodi:docname="light.svg"
   inkscape:export-filename="..\light.svg"
   inkscape:export-xdpi="96"
   inkscape:export-ydpi="96"
   inkscape:version="1.4 (86a8ad7, 2024-10-11)"
   xmlns:inkscape="http://www.inkscape.org/namespaces/inkscape"
   xmlns:sodipodi="http://sodipodi.sourceforge.net/DTD/sodipodi-0.dtd"
   xmlns="http://www.w3.org/2000/svg"
   xmlns:svg="http://www.w3.org/2000/svg">
  <sodipodi:namedview
     id="namedview5"
     pagecolor="#505050"
     bordercolor="#ffffff"
     borderopacity="1"
     inkscape:showpageshadow="0"
     inkscape:pageopacity="0"
     inkscape:pagecheckerboard="1"
     inkscape:deskcolor="#505050"
     inkscape:zoom="1.5966797"
     inkscape:cx="512.31315"
     inkscape:cy="211.37615"
     inkscape:window-width="3072"
     inkscape:window-height="1891"
     inkscape:window-x="-9"
     inkscape:window-y="-9"
     inkscape:window-maximized="1"
     inkscape:current-layer="light" />
  <defs
     id="defs1">
    <style
       id="style1">
      .cls-1 {
        fill: #27130f;
      }

      .cls-2 {
        fill: #946039;
      }

      .cls-3 {
        fill: #ce161c;
      }
    </style>
  </defs>
  <g
     id="g5"
     transform="matrix(0.99609371,0,0,0.99609371,-65.604205,-93.627615)">
    <g
       id="g2"
       transform="matrix(1.443799,0,0,1.443799,-159.35572,-131.22242)"
       inkscape:label="g2">
      <path
         class="cls-3"
         d="M 765.3,790.63 H 663.98 L 651.31,777.96 V 727.3 c 0,-20.95 17.04,-38 38,-38 h 126.65 l 12.67,12.67 v 25.33 c 0,34.92 -28.41,63.32 -63.33,63.32 z M 676.64,765.3 h 88.66 c 20.95,0 38,-17.04 38,-37.99 V 714.64 H 689.31 c -6.98,0 -12.67,5.68 -12.67,12.67 z"
         id="path1" />
      <path
         class="cls-3"
         d="m 752.63,613.32 v 0 227.97 c 0,13.98 -11.35,25.33 -25.33,25.33 v 0 -227.97 c 0,-13.98 11.35,-25.33 25.33,-25.33 z"
         transform="rotate(180,739.97,739.97)"
         id="path2" />
    </g>
    <path
       class="cls-1"
       d="M 945.56905,96.00263 H 214.14054 c -50.40294,0 -91.4213,41.01836 -91.4213,91.4213 v 731.42851 c 0,50.41741 41.01836,91.43576 91.4213,91.43576 H 744.4336 V 973.71667 H 214.14054 c -30.24756,0 -54.84976,-24.61659 -54.84976,-54.86423 V 187.42393 c 0,-30.24756 24.6022,-54.84976 54.84976,-54.84976 h 731.42851 c 30.24764,0 54.86425,24.6022 54.86425,54.84976 v 640.00724 h 36.5715 V 187.42393 c 0,-50.40294 -41.01834,-91.4213 -91.43575,-91.4213 z"
       id="path3"
       style="stroke-width:1.44389" />
    <circle
       class="cls-2"
       cx="406.75793"
       cy="379.43481"
       r="27.432159"
       id="circle3"
       style="stroke-width:1.44389" />
    <rect
       class="cls-3"
       x="415.91138"
       y="589.70935"
       width="328.53616"
       height="54.849911"
       rx="27.432159"
       ry="27.432159"
       id="rect3"
       style="stroke-width:1.44389" />
    <rect
       class="cls-3"
       x="415.91138"
       y="699.42377"
       width="328.53616"
       height="54.849911"
       rx="27.432159"
       ry="27.432159"
       id="rect4"
       style="stroke-width:1.44389" />
    <path
       class="cls-3"
       d="m 656.76591,379.43493 c -9.67338,9.67354 -18.66826,18.6682 -27.43216,27.43196 H 498.19353 c -15.14549,0 -27.43218,-12.28667 -27.43218,-27.43196 0,-7.56558 3.07537,-14.43816 8.04204,-19.39037 4.95224,-4.96674 11.82465,-8.04188 19.39014,-8.04188 h 131.14022 z"
       id="path4"
       style="stroke-width:1.44389" />
    <path
       class="cls-1"
       d="m 556.17653,278.85967 100.57499,100.57526 c -15.33315,15.33322 -29.02035,29.02002 -42.69309,42.70738 -10.43871,10.42428 -20.87707,20.86286 -32.00908,32.00909 l -62.32879,62.41528 h 142.44506 c 41.50923,0 80.54957,16.1706 109.90209,45.52305 29.35239,29.35245 45.52297,68.39272 45.52297,109.9164 0,41.52361 -16.17058,80.53518 -45.52297,109.90207 -29.33806,29.35237 -68.36392,45.52297 -109.90209,45.52297 H 379.34006 c -20.16996,0 -36.57153,-16.40173 -36.57153,-36.57147 V 315.43115 c 0,-20.16991 16.40157,-36.57148 36.57153,-36.57148 h 176.85087 m 15.14541,-36.57133 H 379.34006 c -40.39758,0 -73.14279,32.75967 -73.14279,73.14281 V 790.8597 c 0,40.3975 32.74521,73.14279 73.14279,73.14279 h 282.82556 c 53.01647,0 101.02273,-21.48355 135.76057,-56.23578 34.73782,-34.75225 56.23595,-82.74413 56.23595,-135.76058 0,-106.04695 -85.96373,-192.01071 -191.99652,-192.01071 H 607.9367 c 11.13168,-11.14631 21.5559,-21.57036 31.98015,-31.98022 20.89171,-20.90631 41.78352,-41.79792 68.56595,-68.58027 z"
       id="path5"
       style="stroke-width:1.44389" />
  </g>
</svg>
