<?xml version="1.0" encoding="UTF-8" standalone="no"?>
<svg
   id="night"
   viewBox="0 0 1024 1024"
   version="1.1"
   sodipodi:docname="night.svg"
   inkscape:export-filename="..\night.svg"
   inkscape:export-xdpi="96"
   inkscape:export-ydpi="96"
   inkscape:version="1.4 (86a8ad7, 2024-10-11)"
   xmlns:inkscape="http://www.inkscape.org/namespaces/inkscape"
   xmlns:sodipodi="http://sodipodi.sourceforge.net/DTD/sodipodi-0.dtd"
   xmlns="http://www.w3.org/2000/svg"
   xmlns:svg="http://www.w3.org/2000/svg">
  <sodipodi:namedview
     id="namedview5"
     pagecolor="#505050"
     bordercolor="#ffffff"
     borderopacity="1"
     inkscape:showpageshadow="0"
     inkscape:pageopacity="0"
     inkscape:pagecheckerboard="1"
     inkscape:deskcolor="#505050"
     inkscape:zoom="1.5966797"
     inkscape:cx="512.31315"
     inkscape:cy="512"
     inkscape:window-width="3072"
     inkscape:window-height="1891"
     inkscape:window-x="-9"
     inkscape:window-y="-9"
     inkscape:window-maximized="1"
     inkscape:current-layer="night" />
  <defs
     id="defs1">
    <style
       id="style1">
      .cls-1 {
        fill: #bac6e0;
      }

      .cls-2 {
        fill: #ce161c;
      }

      .cls-3 {
        fill: #feeb4c;
      }
    </style>
  </defs>
  <g
     id="g5"
     transform="matrix(1.4381592,0,0,1.4381592,-224.33751,-224.33751)">
    <g
       id="g2">
      <path
         class="cls-2"
         d="M 765.3,790.63 H 663.98 L 651.31,777.96 V 727.3 c 0,-20.95 17.04,-38 38,-38 h 126.65 l 12.67,12.67 v 25.33 c 0,34.92 -28.41,63.32 -63.33,63.32 z M 676.64,765.3 h 88.66 c 20.95,0 38,-17.04 38,-37.99 V 714.64 H 689.31 c -6.98,0 -12.67,5.68 -12.67,12.67 z"
         id="path1" />
      <path
         class="cls-2"
         d="m 752.63,613.32 v 0 227.97 c 0,13.98 -11.35,25.33 -25.33,25.33 v 0 -227.97 c 0,-13.98 11.35,-25.33 25.33,-25.33 z"
         transform="rotate(180,739.97,739.97)"
         id="path2" />
    </g>
    <path
       class="cls-1"
       d="m 765.29,157.38 h -506.6 c -34.91,0 -63.32,28.41 -63.32,63.32 v 506.6 c 0,34.92 28.41,63.33 63.32,63.33 H 625.98 V 765.3 H 258.69 c -20.95,0 -37.99,-17.05 -37.99,-38 V 220.7 c 0,-20.95 17.04,-37.99 37.99,-37.99 h 506.6 c 20.95,0 38,17.04 38,37.99 v 443.28 h 25.33 V 220.7 c 0,-34.91 -28.41,-63.32 -63.33,-63.32 z"
       id="path3" />
    <circle
       class="cls-3"
       cx="392.10001"
       cy="353.69"
       r="19"
       id="circle3" />
    <rect
       class="cls-2"
       x="398.44"
       y="499.32999"
       width="227.55"
       height="37.990002"
       rx="19"
       ry="19"
       id="rect3" />
    <rect
       class="cls-2"
       x="398.44"
       y="575.32001"
       width="227.55"
       height="37.990002"
       rx="19"
       ry="19"
       id="rect4" />
    <path
       class="cls-2"
       d="m 565.26,353.69 c -6.7,6.7 -12.93,12.93 -19,19 h -90.83 c -10.49,0 -19,-8.51 -19,-19 0,-5.24 2.13,-10 5.57,-13.43 3.43,-3.44 8.19,-5.57 13.43,-5.57 h 90.83 z"
       id="path4" />
    <path
       class="cls-1"
       d="m 495.59,284.03 69.66,69.66 c -10.62,10.62 -20.1,20.1 -29.57,29.58 -7.23,7.22 -14.46,14.45 -22.17,22.17 l -43.17,43.23 H 569 c 28.75,0 55.79,11.2 76.12,31.53 20.33,20.33 31.53,47.37 31.53,76.13 0,28.76 -11.2,55.78 -31.53,76.12 -20.32,20.33 -47.35,31.53 -76.12,31.53 H 373.11 c -13.97,0 -25.33,-11.36 -25.33,-25.33 V 309.36 c 0,-13.97 11.36,-25.33 25.33,-25.33 H 495.6 M 506.09,258.7 H 373.11 c -27.98,0 -50.66,22.69 -50.66,50.66 v 329.29 c 0,27.98 22.68,50.66 50.66,50.66 H 569 c 36.72,0 69.97,-14.88 94.03,-38.95 24.06,-24.07 38.95,-57.31 38.95,-94.03 0,-73.45 -59.54,-132.99 -132.98,-132.99 h -37.56 c 7.71,-7.72 14.93,-14.94 22.15,-22.15 14.47,-14.48 28.94,-28.95 47.49,-47.5 z"
       id="path5" />
  </g>
</svg>
